<svg xmlns="http://www.w3.org/2000/svg" viewBox="0 0 1600 1000">
<defs>
<linearGradient id="g1" x1="0" y1="0" x2="1" y2="1">
<stop offset="0%" stop-color="#4A5F73"/><stop offset="100%" stop-color="#22303F"/>
</linearGradient>
<linearGradient id="g2" x1="1" y1="0" x2="0" y2="1">
<stop offset="0%" stop-color="#435870"/><stop offset="100%" stop-color="#1B2735"/>
</linearGradient>
<linearGradient id="g3" x1="0" y1="1" x2="1" y2="0">
<stop offset="0%" stop-color="#37485A"/><stop offset="100%" stop-color="#141E29"/>
</linearGradient>
<linearGradient id="g4" x1="1" y1="1" x2="0" y2="0">
<stop offset="0%" stop-color="#3E5164"/><stop offset="100%" stop-color="#182330"/>
</linearGradient>
<linearGradient id="g5" x1="0" y1="0" x2="0" y2="1">
<stop offset="0%" stop-color="#47596C"/><stop offset="100%" stop-color="#1C2731"/>
</linearGradient>
<linearGradient id="wallLight" x1="0" y1="0" x2="1" y2="1">
<stop offset="0%" stop-color="#7C93A6" stop-opacity="0.28"/>
<stop offset="55%" stop-color="#1B2735" stop-opacity="0"/>
</linearGradient>
<radialGradient id="vignette" cx="50%" cy="40%" r="75%">
<stop offset="0%" stop-color="#0E1520" stop-opacity="0"/>
<stop offset="100%" stop-color="#070A0F" stop-opacity="0.55"/>
</radialGradient>
</defs>

<rect width="1600" height="1000" fill="#1B2735"/>

<g stroke="#0B121B" stroke-width="2" opacity="0.85">
<polygon points="0,0 400,0 380,220 0,250" fill="url(#g1)"/>
<polygon points="400,0 800,0 820,270 380,220" fill="url(#g2)"/>
<polygon points="800,0 1200,0 1180,230 820,270" fill="url(#g3)"/>
<polygon points="1200,0 1600,0 1600,250 1180,230" fill="url(#g4)"/>
<polygon points="0,250 380,220 420,540 0,500" fill="url(#g5)"/>
<polygon points="380,220 820,270 790,480 420,540" fill="url(#g1)"/>
<polygon points="820,270 1180,230 1220,520 790,480" fill="url(#g2)"/>
<polygon points="1180,230 1600,250 1600,500 1220,520" fill="url(#g3)"/>
<polygon points="0,500 420,540 360,720 0,750" fill="url(#g4)"/>
<polygon points="420,540 790,480 810,760 360,720" fill="url(#g5)"/>
<polygon points="790,480 1220,520 1190,710 810,760" fill="url(#g1)"/>
<polygon points="1220,520 1600,500 1600,750 1190,710" fill="url(#g2)"/>
<polygon points="0,750 360,720 400,1000 0,1000" fill="url(#g3)"/>
<polygon points="360,720 810,760 800,1000 400,1000" fill="url(#g4)"/>
<polygon points="810,760 1190,710 1200,1000 800,1000" fill="url(#g5)"/>
<polygon points="1190,710 1600,750 1600,1000 1200,1000" fill="url(#g1)"/>
</g>

<rect width="1600" height="1000" fill="url(#wallLight)"/>
<rect width="1600" height="1000" fill="url(#vignette)"/>

<line x1="380" y1="220" x2="360" y2="720" stroke="#E8734A" stroke-width="2" opacity="0.3"/>

<!-- tiny climber low on the wall -->
<g transform="translate(346,842)">
<circle cx="0" cy="0" r="6" fill="#0E1520"/>
<path d="M-2,6 L4,6 5,26 -3,26 Z" fill="#0E1520"/>
<line x1="-2" y1="10" x2="-14" y2="20" stroke="#0E1520" stroke-width="3" stroke-linecap="round"/>
<line x1="4" y1="9" x2="16" y2="-2" stroke="#0E1520" stroke-width="3" stroke-linecap="round"/>
<line x1="-2" y1="26" x2="-10" y2="42" stroke="#0E1520" stroke-width="3" stroke-linecap="round"/>
<line x1="4" y1="26" x2="12" y2="40" stroke="#0E1520" stroke-width="3" stroke-linecap="round"/>
<circle cx="16" cy="-2" r="2.5" fill="#E8734A"/>
</g>
</svg>
